<svg xmlns="http://www.w3.org/2000/svg" xmlns:xlink="http://www.w3.org/1999/xlink" width="398" height="432" class="h-72">
  <linearGradient id="b" x1="50%" x2="50%" y1="0%" y2="100%">
    <stop offset="0" stop-color="#eed9c3"/>
    <stop offset=".974" stop-color="#f0b577"/>
  </linearGradient>
  <linearGradient id="a">
    <stop offset="0" stop-color="#e6e6e6"/>
    <stop offset=".56" stop-color="#d8d8d8"/>
    <stop offset="1" stop-color="#a1a1a1"/>
  </linearGradient>
  <linearGradient xlink:href="#a" id="c" x1="49.006%" x2="54.722%" y1="59.791%" y2="62.034%"/>
  <linearGradient xlink:href="#a" id="d" x1="43.893%" x2="57.667%" y1="53.432%" y2="63.534%"/>
  <g fill="none" fill-rule="evenodd">
    <path fill="#acacac" d="M190 432c98.307 0 178-2.477 178-8s-79.693-10-178-10-178 4.477-178 10 79.693 8 178 8z"/>
    <path fill="#ba442f" d="M166 240v184H46c12.05-13.857 21.818-51.958 21.818-85.083V240zm94.91 0v100.907c0 32.028 9.442 69.236 21.09 83.093H166V240z"/>
    <path fill="#000" fill-opacity=".15" d="M164 240v184H54c11.046-13.857 20-49.724 20-80.084V240zm90 0v103.916c0 30.36 8.954 66.227 20 80.084H164V240z"/>
    <path fill="url(#b)" d="M96 184h136l32 67.93-8 36H72l-8-36z"/>
    <path fill="#f0be89" d="M94.226 262.556 39.872 240l-12.646 52.834c-3.751 15.67-6.792 41.436-6.792 57.542v6.692c0 6.628 5.371 12 11.991 12h2.017c6.623 0 11.992-5.372 11.992-11.997v.625c0-16.106 7.665-39.744 17.11-52.784zm195.775-29.803L248 273.973l43.692 32.285c12.96 9.576 35.489 22.442 50.314 28.735l6.16 2.615c6.101 2.59 13.146-.256 15.732-6.35l.788-1.856c2.588-6.096-.26-13.137-6.358-15.726l.576.244c-14.826-6.293-33.59-22.585-41.902-36.375z"/>
    <path fill="#b98337" d="M112 368.658h24V432H80v-9.005c0-8.282 6.514-13.366 14.549-11.358L112 416zm104-.256h-24V432h56v-9.005c0-8.282-6.514-13.366-14.549-11.358L216 416z"/>
    <path fill="#d8d8d8" d="M336 160h16v267s-1.365 3-8 3-8-3-8-3zm-28-24h72l-9 16h-54z"/>
    <path fill="#cfcfcf" d="M324 152h40l-12 16h-16z"/>
    <path fill="#ce973d" d="M318.423 136.012h-10.417L291 99.115 308.336 62l10.087 2.837-16.39 34.278zm38.472-67.077-16.075 56.264h-10.245l16.233-56.264zm40.285 30.18-17.19 36.9h-10.233l16.39-36.9-16.39-34.278L379.843 62z"/>
    <circle cx="352" cy="326" r="12" fill="#f0be89"/>
    <path fill="#e3b261" d="M120 216s14.004 24 44.004 24S208 216 208 216l64.004 24s3.32 25.36-16 64-24 50-24 50-12.95 30-68 30-68-30-68-30-7.32-16.64-24-50-16-64-16-64z"/>
    <path fill="#dba141" d="M168 253v27.089C194.195 281.18 240 292 240 292v4H88v-4s45.806-10.82 72.001-11.911L160 253zm-40 59s24.064-8 36-8 36 8 36 8v8h-72zm0 12h72v16h-72zm0 20h72v16h-72z"/>
    <path fill="#ba442f" d="M0 200h72l40 24-40 24H48c-13.255 0-28.806-9.613-34.736-21.473z"/>
    <circle cx="68" cy="236" r="20" fill="#d8d8d8"/>
    <circle cx="68" cy="236" r="16" fill="#e3b261"/>
    <path fill="#ba442f" d="M328 200h-72l-40 24 40 24h24c13.255 0 28.806-9.613 34.736-21.473z"/>
    <g transform="translate(240 216)">
      <circle cx="20" cy="20" r="20" fill="#d8d8d8" transform="matrix(-1 0 0 1 40 0)"/>
      <circle cx="20" cy="20" r="16" fill="#e3b261"/>
    </g>
    <g transform="translate(67)">
      <path fill="#eed9c3" d="M38.6 154.767 58.133 86.11h78.131l19.533 68.657z"/>
      <ellipse cx="122.253" cy="120.931" fill="#353535" rx="5.52" ry="5.525"/>
      <path fill="#a78347" d="M85.723 114.648a3.493 3.493 0 0 0-3.49-3.494h-16.46a3.493 3.493 0 0 0-3.49 3.494v10.819a5.238 5.238 0 0 0 5.235 5.24h5.99c3.24 0 6.346-1.289 8.638-3.582a12.23 12.23 0 0 0 3.577-8.644z"/>
      <path fill="#dba141" d="M174.33 76.558 154.797 96.11V76.558l24.416-19.552z"/>
      <path fill="#e1a94f" d="m179.213 58.006-24.416 19.552V58.006l29.3-19.553z"/>
      <path fill="#e3b261" d="M155.087 20.492 193.863.35l-9.767 39.104-29.009 20.144z"/>
      <path fill="#dba141" d="M20.067 76.558 39.6 96.11V76.558L15.184 57.006z"/>
      <path fill="#e1a94f" d="M15.184 58.006 39.6 77.558V58.006L10.3 38.453z"/>
      <path fill="#e3b261" d="M38.919 19.84.534.35l9.767 39.104 28.618 19.492z"/>
      <path fill="#e3b261" d="M155.797 57.006s-29.3-19.553-58.598-19.553c-29.3 0-58.599 19.553-58.599 19.553v58.656l7.813 15.642 4.19-16.156c4.159-16.037 18.244-20.933 31.45-10.943l15.146 11.457 15.145-11.457c13.21-9.994 27.29-5.099 31.45 10.943l4.19 16.156 7.813-15.642z"/>
      <path fill="url(#c)" d="m55.666 29.99-15.627 91.896-21.546-15.641 17.64-66.478z" transform="translate(22 115)"/>
      <path fill="url(#c)" d="m131.904 29.99-15.626 91.896-21.547-15.641 17.64-66.478z" transform="matrix(-1 0 0 1 248.636 115)"/>
      <path fill="url(#d)" d="M16.6.662.974 59.32l19.533 39.105 15.626-58.657z" transform="translate(22 115)"/>
      <path fill="url(#d)" d="M129.89.662 114.265 59.32l19.533 39.105 15.626-58.657z" transform="matrix(-1 0 0 1 285.688 115)"/>
      <path fill="#e6e6e6" d="m77.666 144.99-17.58 95.807L97.2 260.349l37.112-19.552-17.58-95.806-18.075-9.047-1.457-.73z"/>
      <path fill="#353535" d="M104.2 148.901H90.525v4.892a6.84 6.84 0 0 0 6.833 6.84h.008a6.84 6.84 0 0 0 6.833-6.84z"/>
    </g>
  </g>
</svg>
